<svg width="100%" height="100%" id="svg" viewBox="0 0 1440 490" xmlns="http://www.w3.org/2000/svg" class="transition duration-300 ease-in-out delay-150"><path d="M 0,500 C 0,500 0,166 0,166 C 86.32142857142861,188.28571428571428 172.64285714285722,210.57142857142858 301,220 C 429.3571428571428,229.42857142857142 599.7499999999998,226 725,198 C 850.2500000000002,170 930.3571428571431,117.42857142857143 1042,108 C 1153.6428571428569,98.57142857142857 1296.8214285714284,132.28571428571428 1440,166 C 1440,166 1440,500 1440,500 Z" stroke="none" stroke-width="0" fill="#0693e3" fill-opacity="0.53" class="transition-all duration-300 ease-in-out delay-150 path-0"></path><path d="M 0,500 C 0,500 0,333 0,333 C 150.14285714285717,341.3571428571429 300.28571428571433,349.7142857142857 408,342 C 515.7142857142857,334.2857142857143 581,310.5 679,314 C 777,317.5 907.7142857142858,348.2857142857143 1040,356 C 1172.2857142857142,363.7142857142857 1306.142857142857,348.3571428571429 1440,333 C 1440,333 1440,500 1440,500 Z" stroke="none" stroke-width="0" fill="#0693e3" fill-opacity="1" class="transition-all duration-300 ease-in-out delay-150 path-1"></path></svg>