<?xml version="1.0" standalone="no"?>
<svg xmlns:xlink="http://www.w3.org/1999/xlink" id="wave" style="transform:rotate(0deg); transition: 0.3s" viewBox="0 0 1440 290" version="1.1" xmlns="http://www.w3.org/2000/svg"><defs><linearGradient id="sw-gradient-0" x1="0" x2="0" y1="1" y2="0"><stop stop-color="rgba(255, 255, 255, 1)" offset="0%"/><stop stop-color="rgba(255, 255, 255, 1)" offset="100%"/></linearGradient></defs><path style="transform:translate(0, 0px); opacity:1" fill="url(#sw-gradient-0)" d="M0,116L80,135.3C160,155,320,193,480,188.5C640,184,800,135,960,135.3C1120,135,1280,184,1440,178.8C1600,174,1760,116,1920,91.8C2080,68,2240,77,2400,111.2C2560,145,2720,203,2880,212.7C3040,222,3200,184,3360,183.7C3520,184,3680,222,3840,203C4000,184,4160,106,4320,77.3C4480,48,4640,68,4800,106.3C4960,145,5120,203,5280,222.3C5440,242,5600,222,5760,207.8C5920,193,6080,184,6240,159.5C6400,135,6560,97,6720,67.7C6880,39,7040,19,7200,9.7C7360,0,7520,0,7680,9.7C7840,19,8000,39,8160,53.2C8320,68,8480,77,8640,72.5C8800,68,8960,48,9120,77.3C9280,106,9440,184,9600,203C9760,222,9920,184,10080,183.7C10240,184,10400,222,10560,203C10720,184,10880,106,11040,106.3C11200,106,11360,184,11440,222.3L11520,261L11520,290L11440,290C11360,290,11200,290,11040,290C10880,290,10720,290,10560,290C10400,290,10240,290,10080,290C9920,290,9760,290,9600,290C9440,290,9280,290,9120,290C8960,290,8800,290,8640,290C8480,290,8320,290,8160,290C8000,290,7840,290,7680,290C7520,290,7360,290,7200,290C7040,290,6880,290,6720,290C6560,290,6400,290,6240,290C6080,290,5920,290,5760,290C5600,290,5440,290,5280,290C5120,290,4960,290,4800,290C4640,290,4480,290,4320,290C4160,290,4000,290,3840,290C3680,290,3520,290,3360,290C3200,290,3040,290,2880,290C2720,290,2560,290,2400,290C2240,290,2080,290,1920,290C1760,290,1600,290,1440,290C1280,290,1120,290,960,290C800,290,640,290,480,290C320,290,160,290,80,290L0,290Z"/><defs><linearGradient id="sw-gradient-1" x1="0" x2="0" y1="1" y2="0"><stop stop-color="rgba(255, 255, 255, 1)" offset="0%"/><stop stop-color="rgba(255, 255, 255, 1)" offset="100%"/></linearGradient></defs><path style="transform:translate(0, 50px); opacity:0.9" fill="url(#sw-gradient-1)" d="M0,116L80,101.5C160,87,320,58,480,82.2C640,106,800,184,960,188.5C1120,193,1280,126,1440,96.7C1600,68,1760,77,1920,96.7C2080,116,2240,145,2400,164.3C2560,184,2720,193,2880,188.5C3040,184,3200,164,3360,145C3520,126,3680,106,3840,120.8C4000,135,4160,184,4320,212.7C4480,242,4640,251,4800,222.3C4960,193,5120,126,5280,96.7C5440,68,5600,77,5760,111.2C5920,145,6080,203,6240,193.3C6400,184,6560,106,6720,91.8C6880,77,7040,126,7200,120.8C7360,116,7520,58,7680,38.7C7840,19,8000,39,8160,82.2C8320,126,8480,193,8640,212.7C8800,232,8960,203,9120,203C9280,203,9440,232,9600,236.8C9760,242,9920,222,10080,178.8C10240,135,10400,68,10560,48.3C10720,29,10880,58,11040,58C11200,58,11360,29,11440,14.5L11520,0L11520,290L11440,290C11360,290,11200,290,11040,290C10880,290,10720,290,10560,290C10400,290,10240,290,10080,290C9920,290,9760,290,9600,290C9440,290,9280,290,9120,290C8960,290,8800,290,8640,290C8480,290,8320,290,8160,290C8000,290,7840,290,7680,290C7520,290,7360,290,7200,290C7040,290,6880,290,6720,290C6560,290,6400,290,6240,290C6080,290,5920,290,5760,290C5600,290,5440,290,5280,290C5120,290,4960,290,4800,290C4640,290,4480,290,4320,290C4160,290,4000,290,3840,290C3680,290,3520,290,3360,290C3200,290,3040,290,2880,290C2720,290,2560,290,2400,290C2240,290,2080,290,1920,290C1760,290,1600,290,1440,290C1280,290,1120,290,960,290C800,290,640,290,480,290C320,290,160,290,80,290L0,290Z"/></svg>