<?xml version="1.0" encoding="utf-8"?>
<!-- Generator: Adobe Illustrator 22.0.0, SVG Export Plug-In . SVG Version: 6.00 Build 0)  -->
<svg version="1.1" id="Layer_1" xmlns="http://www.w3.org/2000/svg" xmlns:xlink="http://www.w3.org/1999/xlink" x="0px" y="0px"
	 viewBox="0 0 100 100" style="enable-background:new 0 0 100 100;" xml:space="preserve">
<g>
	<path d="M27,36.7c-0.6,0.3-1.1,0.7-1.4,1.4v0c-0.4,0.9-0.2,2,0.5,2.7c0.7,0.7,1.8,0.9,2.7,0.5c0.9-0.4,1.5-1.3,1.5-2.3
		c0-1-0.6-1.9-1.5-2.3C28.3,36.4,27.6,36.4,27,36.7z"/>
	<path d="M41.7,32.7L41.7,32.7c-0.6,1.3,0,2.8,1.3,3.3c1.3,0.5,2.8-0.1,3.3-1.4c0.5-1.3-0.1-2.7-1.4-3.2
		C43.7,31,42.2,31.5,41.7,32.7z"/>
	<path d="M38,40c-0.6,0.3-1.1,0.7-1.4,1.4v0c-0.4,0.9-0.2,2,0.5,2.7c0.7,0.7,1.8,0.9,2.7,0.5c0.9-0.4,1.5-1.3,1.5-2.3
		c0-1-0.6-1.9-1.5-2.3C39.3,39.8,38.6,39.8,38,40z"/>
	<polygon points="94.7,49.9 94.7,49.9 94.7,49.9 	"/>
	<path d="M94.7,49.9H77.5c-0.7-3.7-3.9-6.4-7.6-6.4H59.7c-3.7,0-7,2.7-7.6,6.4H13.3V13.7c0-2.9,2-5.3,4.8-5.8
		c2.8-0.5,5.6,1.1,6.6,3.7l0.4,1.1h0c-5.3,3-7.7,9.3-5.9,15l0.6,2l-1,0.3v0c-1.2,0.4-1.9,1.5-1.7,2.8c0.2,1.2,1.2,2.1,2.5,2.1
		c0.3,0,0.5,0,0.7-0.1l26.5-8.3c1.3-0.4,2.1-1.8,1.6-3.1c-0.4-1.3-1.8-2.1-3.1-1.6l-1,0.3L43.8,20c-1.9-5.9-7.7-9.7-13.9-8.9
		l-0.5-1.3v0C27.5,4.9,22.4,2,17.3,3c-5.2,0.9-8.9,5.4-8.9,10.7v36.2l-3,0c-1.4,0-2.5,1.1-2.5,2.5c0,1.4,1.1,2.5,2.5,2.5h3.2v6.7
		c0,5.8,1.8,11.4,5.2,16.1c3.4,4.7,8.1,8.2,13.6,10.1l-4.2,5.4c-0.8,1.1-0.7,2.6,0.4,3.5c0.4,0.3,1,0.5,1.5,0.5c0.8,0,1.5-0.3,2-1
		l5.5-7.2c1.2,0.2,2.4,0.2,3.7,0.3h27.5c1.2,0,2.5-0.1,3.7-0.3l5.6,7.2c0.5,0.6,1.2,1,2,1c0.6,0,1.1-0.2,1.5-0.5
		c1.1-0.9,1.3-2.4,0.4-3.5l-4.2-5.4c5.5-1.9,10.2-5.4,13.5-10.1c3.3-4.7,5.1-10.3,5.1-16.1v-6.7h3.2c1.4,0,2.5-1.1,2.5-2.5
		C97.2,51,96.1,49.9,94.7,49.9z M31.5,16L31.5,16c3.4,0,6.5,2.2,7.5,5.5l0.7,2l-15,4.7l-0.7-2h0c-0.6-2-0.4-4.2,0.5-6
		C25.9,17.6,28.5,16,31.5,16z M56.9,51.2c0-0.7,0.3-1.4,0.8-2c0.5-0.5,1.2-0.8,2-0.8h10.2c0.7,0,1.4,0.3,2,0.8
		c0.5,0.5,0.8,1.2,0.8,2v15.1H56.9L56.9,51.2z M86.5,61.6c0,6-2.4,11.8-6.7,16.1c-4.3,4.3-10,6.6-16.1,6.6H36.3
		c-6,0-11.8-2.4-16.1-6.6c-4.3-4.3-6.7-10-6.7-16.1v-6.7H52v11.5c0,1.3,0.5,2.6,1.5,3.5c0.9,0.9,2.2,1.5,3.5,1.5h15.7
		c1.3,0,2.6-0.5,3.5-1.5c0.9-0.9,1.5-2.2,1.5-3.5V54.9h8.8L86.5,61.6z"/>
</g>
</svg>
