<?xml version="1.0" encoding="utf-8"?>
<!-- Generator: Adobe Illustrator 22.0.0, SVG Export Plug-In . SVG Version: 6.00 Build 0)  -->
<svg version="1.1" id="Layer_1" xmlns="http://www.w3.org/2000/svg" xmlns:xlink="http://www.w3.org/1999/xlink" x="0px" y="0px"
	 viewBox="0 0 100 100" style="enable-background:new 0 0 100 100;" xml:space="preserve">
<style type="text/css">
	.st0{fill:none;}
</style>
<title>Artboard 24</title>
<path class="st0" d="M65.8,89.4v-8.2H54.1c-1.2,0-2.2-1-2.2-2.2s1-2.2,2.2-2.2h11.8v-10h-5.3c-1.2,0-2.2-1-2.2-2.2
	c0-1.2,1-2.2,2.2-2.2h5.3v-10H54.1c-1.2,0-2.2-1-2.2-2.2s1-2.2,2.2-2.2h11.8v-10h-5.3c-1.2,0-2.2-1-2.2-2.2s1-2.2,2.2-2.2h5.3v-10
	H54.1c-1.2,0-2.2-1-2.2-2.2c0-1.2,1-2.2,2.2-2.2h11.8v-8.2c0-1.7-1.4-3.1-3.1-3.1H37.3c-1.7,0-3.1,1.4-3.1,3.1v78.8
	c0,1.7,1.4,3.1,3.1,3.1h25.4C64.4,92.5,65.8,91.1,65.8,89.4z"/>
<path d="M70.3,89.4V10.6c0-4.2-3.4-7.6-7.6-7.6H37.3c-4.2,0-7.6,3.4-7.6,7.6v78.8c0,4.2,3.4,7.6,7.6,7.6h25.4
	C66.9,97,70.3,93.6,70.3,89.4z M34.2,89.4V10.6c0-1.7,1.4-3.1,3.1-3.1h25.4c1.7,0,3.1,1.4,3.1,3.1v8.2H54.1c-1.2,0-2.2,1-2.2,2.2
	c0,1.2,1,2.2,2.2,2.2h11.8v10h-5.3c-1.2,0-2.2,1-2.2,2.2s1,2.2,2.2,2.2h5.3v10H54.1c-1.2,0-2.2,1-2.2,2.2s1,2.2,2.2,2.2h11.8v10
	h-5.3c-1.2,0-2.2,1-2.2,2.2c0,1.2,1,2.2,2.2,2.2h5.3v10H54.1c-1.2,0-2.2,1-2.2,2.2s1,2.2,2.2,2.2h11.8v8.2c0,1.7-1.4,3.1-3.1,3.1
	H37.3C35.6,92.5,34.2,91.1,34.2,89.4C34.2,89.4,34.2,89.4,34.2,89.4z"/>
</svg>
