<?xml version="1.0" encoding="utf-8"?>
<!-- Generator: Adobe Illustrator 22.0.0, SVG Export Plug-In . SVG Version: 6.00 Build 0)  -->
<svg version="1.1" id="Layer_1" xmlns="http://www.w3.org/2000/svg" xmlns:xlink="http://www.w3.org/1999/xlink" x="0px" y="0px"
	 viewBox="0 0 100 100" style="enable-background:new 0 0 100 100;" xml:space="preserve">
<path d="M88.7,42.6V28.9c0-6.2-5.1-11.3-11.4-11.3H22.7c-6.2,0-11.3,5.1-11.4,11.3v13.7C0.7,46.2,0.9,56,0.9,70.7
	c0,4.5,3.6,8.3,8.1,8.3c0,0,0.1,0,0.1,0h7.1v3.5h4.6V79h58.3v3.5h4.6V79h7.1c4.5,0,8.2-3.7,8.2-8.2c0,0,0-0.1,0-0.1
	C99.1,56,99.3,46.2,88.7,42.6z M14.7,28.9c0-4.4,3.6-7.9,7.9-7.9h54.7c4.4,0,7.9,3.6,7.9,7.9v12.8c-1.7-0.3-3.4-0.5-5.1-0.5V38
	c0-3.4-2.8-6.2-6.2-6.2H60.2c-3.5,0-6.3,2.8-6.3,6.2v2.7h-9.2V38c0-3.4-2.8-6.2-6.2-6.2H24.8c-3.4,0-6.3,2.8-6.3,6.2c0,0,0,0,0,0
	v3.2c-1.3,0.1-2.5,0.3-3.8,0.5L14.7,28.9z M76.7,38v2.8c-5-0.2-11.4-0.1-19.4,0v-2.7c0-1.6,1.2-2.9,2.8-2.9c0,0,0,0,0,0h13.7
	C75.4,35.3,76.7,36.5,76.7,38z M41.4,38v2.7c-8.2,0-14.5-0.1-19.4,0.1V38c0-1.6,1.3-2.9,2.8-2.9h13.7C40.1,35.2,41.4,36.4,41.4,38z
	 M95.7,70.7c0,2.7-2.2,4.9-4.9,4.9H9.2c-2.7,0-4.9-2.2-4.9-4.9v-5.8h91.5C95.8,66.7,95.7,68.7,95.7,70.7z M4.3,61.5
	c0.2-10.6,2.2-16.8,16.2-17.3c6.2-0.2,15.3,0,29,0h1.3c13.7,0,22.7-0.3,29,0c13.9,0.5,15.9,6.8,16.2,17.3H4.3z"/>
</svg>
