<svg id="visual" viewBox="0 0 900 600" width="900" height="600" xmlns="http://www.w3.org/2000/svg" xmlns:xlink="http://www.w3.org/1999/xlink" version="1.1"><path d="M0 385L9.3 385.3C18.7 385.7 37.3 386.3 56.2 389.5C75 392.7 94 398.3 112.8 398.7C131.7 399 150.3 394 169 396C187.7 398 206.3 407 225 405.3C243.7 403.7 262.3 391.3 281.2 389.8C300 388.3 319 397.7 337.8 400.3C356.7 403 375.3 399 394 404.5C412.7 410 431.3 425 450 425.7C468.7 426.3 487.3 412.7 506.2 405.7C525 398.7 544 398.3 562.8 402.2C581.7 406 600.3 414 619 414.8C637.7 415.7 656.3 409.3 675 408.2C693.7 407 712.3 411 731.2 414.5C750 418 769 421 787.8 420.5C806.7 420 825.3 416 844 417.7C862.7 419.3 881.3 426.7 890.7 430.3L900 434L900 601L890.7 601C881.3 601 862.7 601 844 601C825.3 601 806.7 601 787.8 601C769 601 750 601 731.2 601C712.3 601 693.7 601 675 601C656.3 601 637.7 601 619 601C600.3 601 581.7 601 562.8 601C544 601 525 601 506.2 601C487.3 601 468.7 601 450 601C431.3 601 412.7 601 394 601C375.3 601 356.7 601 337.8 601C319 601 300 601 281.2 601C262.3 601 243.7 601 225 601C206.3 601 187.7 601 169 601C150.3 601 131.7 601 112.8 601C94 601 75 601 56.2 601C37.3 601 18.7 601 9.3 601L0 601Z" fill="#888888"></path><path d="M0 423L9.3 425C18.7 427 37.3 431 56.2 433.2C75 435.3 94 435.7 112.8 437C131.7 438.3 150.3 440.7 169 446C187.7 451.3 206.3 459.7 225 462C243.7 464.3 262.3 460.7 281.2 456.7C300 452.7 319 448.3 337.8 448.2C356.7 448 375.3 452 394 457C412.7 462 431.3 468 450 467.5C468.7 467 487.3 460 506.2 454.2C525 448.3 544 443.7 562.8 442C581.7 440.3 600.3 441.7 619 439.2C637.7 436.7 656.3 430.3 675 433.3C693.7 436.3 712.3 448.7 731.2 455.7C750 462.7 769 464.3 787.8 463.7C806.7 463 825.3 460 844 458.5C862.7 457 881.3 457 890.7 457L900 457L900 601L890.7 601C881.3 601 862.7 601 844 601C825.3 601 806.7 601 787.8 601C769 601 750 601 731.2 601C712.3 601 693.7 601 675 601C656.3 601 637.7 601 619 601C600.3 601 581.7 601 562.8 601C544 601 525 601 506.2 601C487.3 601 468.7 601 450 601C431.3 601 412.7 601 394 601C375.3 601 356.7 601 337.8 601C319 601 300 601 281.2 601C262.3 601 243.7 601 225 601C206.3 601 187.7 601 169 601C150.3 601 131.7 601 112.8 601C94 601 75 601 56.2 601C37.3 601 18.7 601 9.3 601L0 601Z" fill="#686877"></path><path d="M0 481L9.3 484.8C18.7 488.7 37.3 496.3 56.2 500.7C75 505 94 506 112.8 506.2C131.7 506.3 150.3 505.7 169 501.8C187.7 498 206.3 491 225 489.3C243.7 487.7 262.3 491.3 281.2 493C300 494.7 319 494.3 337.8 490.3C356.7 486.3 375.3 478.7 394 476.5C412.7 474.3 431.3 477.7 450 480.2C468.7 482.7 487.3 484.3 506.2 487.3C525 490.3 544 494.7 562.8 494.7C581.7 494.7 600.3 490.3 619 488.5C637.7 486.7 656.3 487.3 675 488C693.7 488.7 712.3 489.3 731.2 490C750 490.7 769 491.3 787.8 490C806.7 488.7 825.3 485.3 844 485C862.7 484.7 881.3 487.3 890.7 488.7L900 490L900 601L890.7 601C881.3 601 862.7 601 844 601C825.3 601 806.7 601 787.8 601C769 601 750 601 731.2 601C712.3 601 693.7 601 675 601C656.3 601 637.7 601 619 601C600.3 601 581.7 601 562.8 601C544 601 525 601 506.2 601C487.3 601 468.7 601 450 601C431.3 601 412.7 601 394 601C375.3 601 356.7 601 337.8 601C319 601 300 601 281.2 601C262.3 601 243.7 601 225 601C206.3 601 187.7 601 169 601C150.3 601 131.7 601 112.8 601C94 601 75 601 56.2 601C37.3 601 18.7 601 9.3 601L0 601Z" fill="#484a66"></path><path d="M0 538L9.3 537.8C18.7 537.7 37.3 537.3 56.2 537.7C75 538 94 539 112.8 536.3C131.7 533.7 150.3 527.3 169 524.7C187.7 522 206.3 523 225 524.7C243.7 526.3 262.3 528.7 281.2 530.2C300 531.7 319 532.3 337.8 531.5C356.7 530.7 375.3 528.3 394 526.7C412.7 525 431.3 524 450 522.2C468.7 520.3 487.3 517.7 506.2 518C525 518.3 544 521.7 562.8 525C581.7 528.3 600.3 531.7 619 531.5C637.7 531.3 656.3 527.7 675 526.2C693.7 524.7 712.3 525.3 731.2 527.7C750 530 769 534 787.8 534.3C806.7 534.7 825.3 531.3 844 529C862.7 526.7 881.3 525.3 890.7 524.7L900 524L900 601L890.7 601C881.3 601 862.7 601 844 601C825.3 601 806.7 601 787.8 601C769 601 750 601 731.2 601C712.3 601 693.7 601 675 601C656.3 601 637.7 601 619 601C600.3 601 581.7 601 562.8 601C544 601 525 601 506.2 601C487.3 601 468.7 601 450 601C431.3 601 412.7 601 394 601C375.3 601 356.7 601 337.8 601C319 601 300 601 281.2 601C262.3 601 243.7 601 225 601C206.3 601 187.7 601 169 601C150.3 601 131.7 601 112.8 601C94 601 75 601 56.2 601C37.3 601 18.7 601 9.3 601L0 601Z" fill="#262f55"></path></svg>